<svg xmlns="http://www.w3.org/2000/svg" width="144" height="80" viewBox="0 0 144 80">
  <defs>
    <linearGradient id="night" x2="1" y2="1">
      <stop stop-color="#182e39"/>
      <stop offset="1" stop-color="#080f19"/>
    </linearGradient>
    <radialGradient id="glow">
      <stop stop-color="#65e6ba" stop-opacity=".18"/>
      <stop offset="1" stop-color="#65e6ba" stop-opacity="0"/>
    </radialGradient>
  </defs>
  <rect width="144" height="80" fill="url(#night)"/>
  <circle cx="32" cy="39" r="38" fill="url(#glow)"/>
  <rect x=".5" y=".5" width="143" height="79" rx="8" fill="none" stroke="#38515a"/>
  <g fill="none" stroke="#70b9b5" stroke-width="1">
    <circle cx="32" cy="39" r="22"/>
    <ellipse cx="32" cy="39" rx="10" ry="22"/>
    <ellipse cx="32" cy="39" rx="22" ry="9"/>
    <path d="M10 39h44M32 17v44"/>
  </g>
  <path d="M32 27c-6 0-10 4.4-10 10 0 7.2 10 16 10 16s10-8.8 10-16c0-5.6-4-10-10-10Z" fill="#8befc4" stroke="#152c31" stroke-width="2"/>
  <circle cx="32" cy="37" r="3.5" fill="#16303a"/>
  <g fill="#f2f7f5" font-family="Inter" font-weight="700">
    <text x="63" y="34" font-size="14" letter-spacing=".7">POCKET</text>
    <text x="62" y="54" font-size="21" letter-spacing=".3">ATLAS</text>
  </g>
  <path d="M64 61h28" stroke="#8befc4" stroke-width="2"/>
</svg>
